<mxfile host="app.diagrams.net" modified="2024-05-14T08:53:48.139Z" agent="Mozilla/5.0 (Windows NT 10.0; Win64; x64) AppleWebKit/537.36 (KHTML, like Gecko) Chrome/123.0.0.0 Safari/537.36" version="24.4.0" etag="Ka1aLxz2rG-vT5G272WD" type="github">
  <diagram name="Page-1" id="2eRrKmM_qhQZuBeR07l8">
    <mxGraphModel>
      <root>
        <mxCell id="0" />
        <mxCell id="1" parent="0" />
      </root>
    </mxGraphModel>
  </diagram>
</mxfile>
